<?xml version="1.0" encoding="UTF-8"?>
<svg id="Layer_1" xmlns="http://www.w3.org/2000/svg" version="1.1" viewBox="0 0 546.96 407.32">
  <!-- Generator: Adobe Illustrator 30.6.0, SVG Export Plug-In . SVG Version: 2.1.4 Build 109)  -->
  <defs>
    <style>
      .st0 {
        fill: #fff;
      }

      .st1 {
        fill: #5dc7d6;
      }

      .st2 {
        fill: #625ba8;
      }
    </style>
  </defs>
  <g>
    <path d="M448.76,316.04h-86.65l84.14-183.62c5.81-12.68,18.47-20.81,32.42-20.81h52.08c11.8,0,19.64,12.22,14.73,22.95l-71.25,165.14c-4.56,9.96-14.51,16.34-25.46,16.34Z"/>
    <path class="st1" d="M448.76,316.04h-86.65l84.14-183.62c5.81-12.68,18.47-20.81,32.42-20.81h52.08c11.8,0,19.64,12.22,14.73,22.95l-71.25,165.14c-4.56,9.96-14.51,16.34-25.46,16.34Z"/>
    <g>
      <path class="st2" d="M234.29,258.13c-4.14,2.24-8.09,7-3.92,17.03l68.63,119.73s12.51,18.01,25.15,10.68l-89.86-147.44Z"/>
      <path class="st2" d="M330.64,271.26s-11.19-15.09-29.69-15.09h-55.01l86.02,141.14c1.04-1.69,2.06-3.61,3.06-5.83l27.74-65.22-32.12-55ZM350.96,339.19c-.23.48-.86.6-1.25.24l-4.76-4.39c-.29-.27-.34-.7-.12-1.03l5.3-7.73c.29-.42.9-.46,1.24-.08l3.43,3.8c.21.24.26.58.13.87l-3.96,8.33Z"/>
    </g>
  </g>
  
</svg>